<svg width="204" height="193" viewBox="0 0 204 193" fill="none" xmlns="http://www.w3.org/2000/svg">
<path fill-rule="evenodd" clip-rule="evenodd" d="M65.8757 62.1925C65.8757 63.7436 64.9421 65.0766 63.6062 65.6603V132.885C63.6062 133.419 63.1736 133.852 62.6397 133.852H61.5466C61.0127 133.852 60.5801 133.419 60.5801 132.885V65.6603C59.2441 65.0766 58.3105 63.7436 58.3105 62.1925C58.3105 60.1034 60.004 58.4099 62.0931 58.4099C64.1822 58.4099 65.8757 60.1034 65.8757 62.1925ZM93.0262 114.165C81.4262 114.165 75.044 114.84 69.028 115.873C68.4343 115.975 67.8895 115.52 67.8895 114.918V65.7704C67.8895 65.2835 68.2505 64.8728 68.7335 64.8106C69.1218 64.7606 69.5165 64.7093 69.9176 64.6572C75.6039 63.9189 82.6069 63.0096 91.6856 63.0096C99.5372 63.0096 105.992 63.7222 111.7 64.3525C116.226 64.8522 120.283 65.3001 124.196 65.3001C132.513 65.3001 138.52 64.9628 144.222 64.2882C144.8 64.2198 145.311 64.6696 145.311 65.2516V114.539C145.311 114.99 145 115.382 144.556 115.457C140.632 116.123 131.392 116.455 124.196 116.455C120.771 116.455 116.619 116.003 112.004 115.501C106.231 114.872 99.7319 114.165 93.0262 114.165ZM109.418 87.0034V75.8031C109.418 75.8031 105.092 75.2249 103.416 75.2249C103.416 75.2249 103.394 80.4074 103.379 86.405C99.7917 86.1514 96.6299 86.1567 93.8045 86.1614H93.8045C93.4273 86.1621 93.0562 86.1627 92.6908 86.1627V92.7858C94.8552 92.7858 98.7666 92.7858 103.367 93.1874C103.362 98.5571 103.372 103.283 103.416 104.238C104.266 104.432 104.943 104.527 105.838 104.653L105.838 104.653C106.707 104.776 107.782 104.927 109.418 105.225V93.8748C114.038 94.4214 117.441 94.6946 120.844 94.6946V87.823C117.158 87.823 114.432 87.5498 109.418 87.0034Z" fill="black"/>
</svg>
