<svg width="16" height="16" viewBox="0 0 16 16" fill="none" xmlns="http://www.w3.org/2000/svg">
<path fill-rule="evenodd" clip-rule="evenodd" d="M12.8623 12.7687C12.7946 12.7681 12.7252 12.7842 12.6605 12.8144C12.5871 12.8438 12.5129 12.8773 12.4432 12.907L12.3396 12.9499L12.205 13.0032V13.0049C10.7465 13.5964 9.21459 13.943 7.79699 13.9735C7.74506 13.9752 7.69285 13.9752 7.64149 13.9752C5.4125 13.9763 3.59358 12.9423 1.75773 11.9234C1.69338 11.8899 1.62875 11.8721 1.56412 11.8721C1.48115 11.8721 1.39677 11.9028 1.33524 11.9607C1.27344 12.0185 1.23675 12.1029 1.23731 12.1884C1.23703 12.2999 1.29714 12.4018 1.3804 12.4678C3.10308 13.9633 4.99086 15.353 7.52945 15.3541C7.57912 15.3541 7.62935 15.353 7.68043 15.3519C9.29503 15.3155 11.1221 14.7702 12.5394 13.8795L12.5476 13.8739C12.7333 13.763 12.919 13.6368 13.094 13.4968C13.2032 13.4158 13.278 13.2902 13.2769 13.159C13.2735 12.9265 13.0757 12.7687 12.8623 12.7687Z" fill="black"/>
<path fill-rule="evenodd" clip-rule="evenodd" d="M14.8292 11.9428V11.9423C14.8235 11.8 14.7933 11.6925 14.7343 11.6027L14.7284 11.5946L14.7214 11.5858C14.6612 11.5203 14.604 11.4955 14.541 11.4678C14.3553 11.3962 14.0847 11.3581 13.7584 11.3569C13.5242 11.3569 13.2651 11.3789 13.006 11.4357L13.0055 11.4185L12.7436 11.5057L12.739 11.5079L12.5914 11.5559V11.5624C12.4184 11.6341 12.2607 11.7238 12.1142 11.8297C12.0239 11.898 11.9477 11.988 11.9435 12.1263C11.9412 12.2013 11.9793 12.2877 12.0434 12.3391C12.1063 12.3904 12.18 12.4074 12.2446 12.4074C12.2601 12.4074 12.2742 12.4068 12.2869 12.4045L12.2996 12.4034L12.3095 12.4017C12.4373 12.3746 12.6236 12.3566 12.8415 12.3255C13.0283 12.3052 13.2267 12.2897 13.3989 12.2897C13.5208 12.2891 13.6297 12.2973 13.7048 12.3139C13.7423 12.3216 13.7703 12.3314 13.7864 12.3393C13.7914 12.3416 13.7951 12.3439 13.7974 12.3453C13.8008 12.3557 13.8056 12.3822 13.805 12.4203C13.8067 12.5643 13.7449 12.831 13.6616 13.0912C13.5801 13.352 13.4807 13.6133 13.4147 13.7869C13.3992 13.8272 13.3893 13.8707 13.3893 13.9187C13.3881 13.9887 13.4164 14.073 13.477 14.1292C13.536 14.1854 13.6122 14.2074 13.6766 14.2074H13.6794C13.7759 14.2062 13.8575 14.1681 13.928 14.1131C14.5918 13.5162 14.8221 12.5643 14.8314 12.0278L14.8292 11.9428Z" fill="black"/>
<path fill-rule="evenodd" clip-rule="evenodd" d="M8.76182 5.54786C8.37151 5.57721 7.92164 5.60685 7.4715 5.6664C6.78203 5.75727 6.09172 5.87637 5.52219 6.14702C4.4125 6.59688 3.66235 7.55672 3.66235 8.96613C3.66235 10.7365 4.80196 11.6362 6.24214 11.6362C6.72164 11.6362 7.11251 11.5756 7.47122 11.4864C8.04159 11.306 8.52137 10.9764 9.09174 10.3755C9.42137 10.826 9.51168 11.0365 10.0812 11.516C10.2311 11.5756 10.3809 11.5756 10.5006 11.4864C10.861 11.1861 11.4912 10.6456 11.8208 10.3465C11.9712 10.2263 11.941 10.0462 11.8505 9.89718C11.5214 9.47667 11.1906 9.11656 11.1906 8.3063V5.60685C11.1906 4.46695 11.2809 3.41681 10.441 2.63787C9.75157 2.00852 8.67151 1.76807 7.83162 1.76807H7.47122C5.94214 1.85668 4.32191 2.51708 3.96207 4.4074C3.90196 4.64786 4.0823 4.73704 4.20253 4.76667L5.88175 4.97665C6.06265 4.94701 6.15183 4.79631 6.18203 4.64758C6.33189 3.98718 6.8715 3.65698 7.47122 3.59686H7.59201C7.95184 3.59686 8.34159 3.74729 8.55156 4.04729C8.79145 4.40712 8.76154 4.88746 8.76154 5.30741V5.54786H8.76182ZM8.43218 9.11656C8.22221 9.53537 7.86181 9.80546 7.4715 9.89718C7.41195 9.89718 7.32221 9.92682 7.23161 9.92682C6.57234 9.92682 6.18203 9.41628 6.18203 8.6667C6.18203 7.70658 6.75212 7.25672 7.47122 7.04674C7.86153 6.957 8.31139 6.92652 8.76154 6.92652V7.28691C8.76182 7.97666 8.79145 8.51627 8.43218 9.11656Z" fill="black"/>
</svg>
